<svg width="94" height="88" viewBox="0 0 94 88" fill="none" xmlns="http://www.w3.org/2000/svg">
<path d="M14.1649 53.7515C9.16493 56.7515 13.665 65.7515 19.165 62.7515C19.165 68.2515 32.1651 70.2514 31.665 64.2515C36.1649 64.2515 38.5581 58.4492 36.1649 53.7515C34.0882 49.6749 30.6649 46.2516 26.1649 49.7516C20.6649 45.7514 12.1649 49.2514 14.1649 53.7515Z" fill="white" stroke="#059F6E"/>
<path d="M1.94843 81.3108C-0.241997 82.5161 1.72942 86.132 4.13885 84.9267C4.13885 87.1364 9.834 87.9399 9.61492 85.5293C11.5863 85.5293 12.6346 83.1982 11.5863 81.3108C10.6765 79.6729 9.17679 78.2975 7.20542 79.7037C4.79596 78.0966 1.07225 79.5028 1.94843 81.3108Z" fill="white" stroke="#059F6E"/>
<path d="M33.6043 16.0201C20.6609 23.8545 32.3102 47.358 46.5478 39.5235C46.5478 53.8868 80.201 59.1096 78.9064 43.4408C90.5552 43.4408 96.7502 28.288 90.5552 16.0201C85.1791 5.374 76.3174 -3.56596 64.6684 5.57433C50.4307 -4.8722 28.427 4.26808 33.6043 16.0201Z" fill="#EEFFFA" stroke="#059F6E"/>
<g filter="url(#filter0_d_28_742)">
<path d="M65.6933 15.637L67.6242 15.1196L68.1416 17.0505L66.2107 17.5679L65.6933 15.637ZM66.2107 17.5679L68.1416 17.0505L68.6589 18.9813L66.7281 19.4987L66.2107 17.5679ZM63.7625 16.1544L65.6933 15.637L66.2107 17.5679L64.2799 18.0852L63.7625 16.1544ZM64.2799 18.0852L66.2107 17.5679L66.7281 19.4987L64.7972 20.0161L64.2799 18.0852ZM63.2451 14.2235L65.176 13.7062L65.6933 15.637L63.7625 16.1544L63.2451 14.2235ZM61.3143 14.7409L63.2451 14.2235L63.7625 16.1544L61.8316 16.6718L61.3143 14.7409ZM59.9008 17.1891L61.8316 16.6718L62.349 18.6026L60.4182 19.12L59.9008 17.1891ZM61.8316 16.6718L63.7625 16.1544L64.2799 18.0852L62.349 18.6026L61.8316 16.6718ZM59.3834 15.2583L61.3143 14.7409L61.8316 16.6718L59.9008 17.1891L59.3834 15.2583ZM57.4526 15.7756L59.3834 15.2583L59.9008 17.1891L57.9699 17.7065L57.4526 15.7756ZM55.5217 16.293L57.4526 15.7756L57.9699 17.7065L56.0391 18.2239L55.5217 16.293ZM56.0391 18.2239L57.9699 17.7065L58.4873 19.6373L56.5565 20.1547L56.0391 18.2239ZM57.9699 17.7065L59.9008 17.1891L60.4182 19.12L58.4873 19.6373L57.9699 17.7065ZM54.1082 18.7412L56.0391 18.2239L56.5565 20.1547L54.6256 20.6721L54.1082 18.7412ZM54.6256 20.6721L56.5565 20.1547L57.0738 22.0856L55.143 22.6029L54.6256 20.6721ZM55.143 22.6029L57.0738 22.0856L57.5912 24.0164L55.6604 24.5338L55.143 22.6029ZM55.6604 24.5338L57.5912 24.0164L58.1086 25.9473L56.1777 26.4646L55.6604 24.5338ZM57.5912 24.0164L59.5221 23.499L60.0394 25.4299L58.1086 25.9473L57.5912 24.0164ZM57.0738 22.0856L59.0047 21.5682L59.5221 23.499L57.5912 24.0164L57.0738 22.0856ZM56.5565 20.1547L58.4873 19.6373L59.0047 21.5682L57.0738 22.0856L56.5565 20.1547ZM58.1086 25.9473L60.0394 25.4299L60.5568 27.3607L58.6259 27.8781L58.1086 25.9473ZM60.0394 25.4299L61.9703 24.9125L62.4876 26.8434L60.5568 27.3607L60.0394 25.4299ZM61.9703 24.9125L63.9011 24.3952L64.4185 26.326L62.4876 26.8434L61.9703 24.9125ZM63.9011 24.3952L65.832 23.8778L66.3493 25.8086L64.4185 26.326L63.9011 24.3952ZM63.3838 22.4643L65.3146 21.9469L65.832 23.8778L63.9011 24.3952L63.3838 22.4643ZM65.3146 21.9469L67.2455 21.4296L67.7628 23.3604L65.832 23.8778L65.3146 21.9469ZM61.4529 22.9817L63.3838 22.4643L63.9011 24.3952L61.9703 24.9125L61.4529 22.9817ZM59.5221 23.499L61.4529 22.9817L61.9703 24.9125L60.0394 25.4299L59.5221 23.499ZM65.832 23.8778L67.7628 23.3604L68.2802 25.2913L66.3493 25.8086L65.832 23.8778ZM67.7628 23.3604L69.6937 22.843L70.211 24.7739L68.2802 25.2913L67.7628 23.3604ZM68.2802 25.2913L70.211 24.7739L70.7284 26.7047L68.7976 27.2221L68.2802 25.2913ZM68.7976 27.2221L70.7284 26.7047L71.2458 28.6356L69.3149 29.153L68.7976 27.2221ZM66.8667 27.7395L68.7976 27.2221L69.3149 29.153L67.3841 29.6703L66.8667 27.7395ZM66.3493 25.8086L68.2802 25.2913L68.7976 27.2221L66.8667 27.7395L66.3493 25.8086ZM67.3841 29.6703L69.3149 29.153L69.8323 31.0838L67.9015 31.6012L67.3841 29.6703ZM69.3149 29.153L71.2458 28.6356L71.7632 30.5664L69.8323 31.0838L69.3149 29.153ZM67.9015 31.6012L69.8323 31.0838L70.3497 33.0147L68.4188 33.532L67.9015 31.6012ZM65.9706 32.1186L67.9015 31.6012L68.4188 33.532L66.488 34.0494L65.9706 32.1186ZM64.0398 32.6359L65.9706 32.1186L66.488 34.0494L64.5571 34.5668L64.0398 32.6359ZM63.5224 30.7051L65.4532 30.1877L65.9706 32.1186L64.0398 32.6359L63.5224 30.7051ZM65.4532 30.1877L67.3841 29.6703L67.9015 31.6012L65.9706 32.1186L65.4532 30.1877ZM61.5915 31.2224L63.5224 30.7051L64.0398 32.6359L62.1089 33.1533L61.5915 31.2224ZM62.1089 33.1533L64.0398 32.6359L64.5571 34.5668L62.6263 35.0841L62.1089 33.1533ZM60.1781 33.6707L62.1089 33.1533L62.6263 35.0841L60.6954 35.6015L60.1781 33.6707ZM59.6607 31.7398L61.5915 31.2224L62.1089 33.1533L60.1781 33.6707L59.6607 31.7398ZM59.1433 29.809L61.0742 29.2916L61.5915 31.2224L59.6607 31.7398L59.1433 29.809ZM57.2125 30.3263L59.1433 29.809L59.6607 31.7398L57.7298 32.2572L57.2125 30.3263ZM57.7298 32.2572L59.6607 31.7398L60.1781 33.6707L58.2472 34.188L57.7298 32.2572ZM64.5571 34.5668L66.488 34.0494L67.0053 35.9803L65.0745 36.4976L64.5571 34.5668ZM63.005 28.7742L64.9359 28.2569L65.4532 30.1877L63.5224 30.7051L63.005 28.7742ZM62.4876 26.8434L64.4185 26.326L64.9359 28.2569L63.005 28.7742L62.4876 26.8434ZM60.9355 21.0508L62.8664 20.5335L63.3838 22.4643L61.4529 22.9817L60.9355 21.0508ZM60.4182 19.12L62.349 18.6026L62.8664 20.5335L60.9355 21.0508L60.4182 19.12ZM58.8661 13.3274L60.7969 12.81L61.3143 14.7409L59.3834 15.2583L58.8661 13.3274Z" fill="#00A671"/>
</g>
<defs>
<filter id="filter0_d_28_742" x="53.0735" y="11.2581" width="19.7244" height="27.8556" filterUnits="userSpaceOnUse" color-interpolation-filters="sRGB">
<feFlood flood-opacity="0" result="BackgroundImageFix"/>
<feColorMatrix in="SourceAlpha" type="matrix" values="0 0 0 0 0 0 0 0 0 0 0 0 0 0 0 0 0 0 127 0" result="hardAlpha"/>
<feOffset dy="1.06387"/>
<feComposite in2="hardAlpha" operator="out"/>
<feColorMatrix type="matrix" values="0 0 0 0 0.00559997 0 0 0 0 0.24 0 0 0 0 0.166884 0 0 0 1 0"/>
<feBlend mode="normal" in2="BackgroundImageFix" result="effect1_dropShadow_28_742"/>
<feBlend mode="normal" in="SourceGraphic" in2="effect1_dropShadow_28_742" result="shape"/>
</filter>
</defs>
</svg>
